<svg height="512pt" viewBox="-111 0 512 512" width="512pt" xmlns="http://www.w3.org/2000/svg"><path d="m34.132812 8.535156h221.867188c14.136719 0 25.601562 11.460938 25.601562 25.597656v443.734376c0 14.136718-11.464843 25.597656-25.601562 25.597656h-221.867188c-14.136718 0-25.597656-11.460938-25.597656-25.597656v-443.734376c0-14.136718 11.460938-25.597656 25.597656-25.597656zm0 0" fill="#cad9fc"/><path d="m34.132812 8.535156h196.265626c14.140624 0 25.601562 11.460938 25.601562 25.597656v443.734376c0 14.136718-11.460938 25.597656-25.601562 25.597656h-196.265626c-14.136718 0-25.597656-11.460938-25.597656-25.597656v-443.734376c0-14.136718 11.460938-25.597656 25.597656-25.597656zm0 0" fill="#e8edfc"/><path d="m34.132812 76.800781h221.867188c14.136719 0 25.601562 11.460938 25.601562 25.597657v324.269531c0 14.136719-11.464843 25.597656-25.601562 25.597656h-221.867188c-14.136718 0-25.597656-11.460937-25.597656-25.597656v-324.269531c0-14.136719 11.460938-25.597657 25.597656-25.597657zm0 0" fill="#cad9fc"/><path d="m24.234375 76.800781-15.699219 15.699219v-15.699219zm0 0" fill="#d3dff2"/><path d="m147.660156 76.800781-139.125 139.125v-123.425781l15.699219-15.699219zm0 0" fill="#d3dff2"/><path d="m147.730469 76.800781-139.195313 139.195313v-.070313l139.125-139.125zm0 0" fill="#d3dff2"/><path d="m147.796875 76.800781-139.261719 139.261719v-.066406l139.195313-139.195313zm0 0" fill="#d8e1f2"/><path d="m147.875 76.800781-139.339844 139.339844v-.078125l139.261719-139.261719zm0 0" fill="#dce3f2"/><path d="m147.941406 76.800781-139.40625 139.410157v-.070313l139.339844-139.339844zm0 0" fill="#e0e5f2"/><path d="m148.011719 76.800781-139.476563 139.476563v-.066406l139.40625-139.410157zm0 0" fill="#e4e7f2"/><path d="m148.078125 76.800781-139.542969 139.542969v-.066406l139.476563-139.476563zm0 0" fill="#e7e8f2"/><path d="m148.148438 76.800781-139.613282 139.613281v-.070312l139.542969-139.542969zm0 0" fill="#eaeaf2"/><path d="m148.214844 76.800781-139.679688 139.679688v-.066407l139.613282-139.613281zm0 0" fill="#edebf2"/><path d="m148.285156 76.800781-139.75 139.75v-.070312l139.679688-139.679688zm0 0" fill="#efecf2"/><path d="m148.359375 76.800781-139.824219 139.828125v-.078125l139.75-139.75zm0 0" fill="#f1edf2"/><path d="m148.429688 76.800781-139.894532 139.894531v-.066406l139.824219-139.828125zm0 0" fill="#f3eef2"/><path d="m148.496094 76.800781-139.960938 139.964844v-.070313l139.894532-139.894531zm0 0" fill="#f5eef2"/><path d="m148.566406 76.800781-140.03125 140.03125v-.066406l139.960938-139.964844zm0 0" fill="#f6eff2"/><path d="m148.632812 76.800781-140.097656 140.097657v-.066407l140.03125-140.03125zm0 0" fill="#f8f0f2"/><path d="m148.703125 76.800781-140.167969 140.167969v-.070312l140.097656-140.097657zm0 0" fill="#f9f0f2"/><path d="m148.769531 76.800781-140.234375 140.234375v-.066406l140.167969-140.167969zm0 0" fill="#faf1f2"/><path d="m148.847656 76.800781-140.3125 140.3125v-.078125l140.234375-140.234375zm0 0" fill="#fbf1f2"/><path d="m148.914062 76.800781-140.378906 140.382813v-.070313l140.3125-140.3125zm0 0" fill="#fbf1f2"/><path d="m148.984375 76.800781-140.449219 140.449219v-.066406l140.378906-140.382813zm0 0" fill="#fcf2f2"/><path d="m149.050781 76.800781-140.515625 140.519531v-.070312l140.449219-140.449219zm0 0" fill="#fdf2f2"/><path d="m149.121094 76.800781-140.585938 140.585938v-.066407l140.515625-140.519531zm0 0" fill="#fdf2f2"/><path d="m149.1875 76.800781-140.652344 140.652344v-.066406l140.585938-140.585938zm0 0" fill="#fdf2f2"/><path d="m149.257812 76.800781-140.722656 140.722657v-.070313l140.652344-140.652344zm0 0" fill="#fef2f2"/><path d="m149.324219 76.800781-140.789063 140.789063v-.066406l140.722656-140.722657zm0 0" fill="#fef3f2"/><path d="m149.402344 76.800781-140.867188 140.867188v-.078125l140.789063-140.789063zm0 0" fill="#fef3f2"/><path d="m149.46875 76.800781-140.933594 140.9375v-.070312l140.867188-140.867188zm0 0" fill="#fef3f2"/><path d="m149.539062 76.800781-141.003906 141.003907v-.066407l140.933594-140.9375zm0 0" fill="#fff3f2"/><path d="m149.605469 76.800781-141.070313 141.074219v-.070312l141.003906-141.003907zm0 0" fill="#fff3f2"/><path d="m149.675781 76.800781-141.140625 141.140625v-.066406l141.070313-141.074219zm0 0" fill="#fff3f2"/><path d="m149.742188 76.800781-141.207032 141.207031v-.066406l141.140625-141.140625zm0 0" fill="#fff3f2"/><path d="m149.8125 76.800781-141.277344 141.277344v-.070313l141.207032-141.207031zm0 0" fill="#fff3f2"/><path d="m149.886719 76.800781-141.351563 141.355469v-.078125l141.277344-141.277344zm0 0" fill="#fff3f2"/><path d="m149.957031 76.800781-141.421875 141.421875v-.066406l141.351563-141.355469zm0 0" fill="#fff3f2"/><path d="m150.023438 76.800781-141.488282 141.492188v-.070313l141.421875-141.421875zm0 0" fill="#fff3f2"/><path d="m150.09375 76.800781-141.558594 141.558594v-.066406l141.488282-141.492188zm0 0" fill="#fff3f2"/><path d="m150.160156 76.800781-141.625 141.625v-.066406l141.558594-141.558594zm0 0" fill="#fff3f2"/><path d="m150.230469 76.800781-141.695313 141.695313v-.070313l141.625-141.625zm0 0" fill="#fff3f2"/><path d="m150.296875 76.800781-141.761719 141.761719v-.066406l141.695313-141.695313zm0 0" fill="#fff3f2"/><path d="m150.375 76.800781-141.839844 141.839844v-.078125l141.761719-141.761719zm0 0" fill="#fff3f2"/><path d="m150.441406 76.800781-141.90625 141.910157v-.070313l141.839844-141.839844zm0 0" fill="#fff3f2"/><path d="m150.511719 76.800781-141.976563 141.976563v-.066406l141.90625-141.910157zm0 0" fill="#fff3f2"/><path d="m150.578125 76.800781-142.042969 142.046875v-.070312l141.976563-141.976563zm0 0" fill="#fff3f2"/><path d="m150.648438 76.800781-142.113282 142.113281v-.066406l142.042969-142.046875zm0 0" fill="#fff3f2"/><path d="m150.714844 76.800781-142.179688 142.179688v-.066407l142.113282-142.113281zm0 0" fill="#fff3f2"/><path d="m184.6875 76.800781-176.152344 176.152344v-33.972656l142.179688-142.179688zm0 0" fill="#fff3f2"/><path d="m184.6875 76.800781-176.152344 176.152344zm0 0" fill="#fff3f2"/><path d="m184.6875 76.800781-176.152344 176.152344zm0 0" fill="#fef3f2"/><path d="m184.6875 76.800781-176.152344 176.152344zm0 0" fill="#fdf2f2"/><path d="m184.6875 76.800781-176.152344 176.152344zm0 0" fill="#fcf2f2"/><path d="m184.6875 76.800781-176.152344 176.152344zm0 0" fill="#fbf1f2"/><path d="m184.6875 76.800781-176.152344 176.152344zm0 0" fill="#faf1f2"/><path d="m184.6875 76.800781-176.152344 176.152344zm0 0" fill="#f9f0f2"/><path d="m184.6875 76.800781-176.152344 176.152344zm0 0" fill="#f8f0f2"/><path d="m184.6875 76.800781-176.152344 176.152344zm0 0" fill="#f7eff2"/><path d="m184.6875 76.800781-176.152344 176.152344zm0 0" fill="#f6eff2"/><path d="m184.6875 76.800781-176.152344 176.152344zm0 0" fill="#f5eef2"/><path d="m184.6875 76.800781-176.152344 176.152344zm0 0" fill="#f4eef2"/><path d="m184.6875 76.800781-176.152344 176.152344zm0 0" fill="#f3edf2"/><path d="m184.6875 76.800781-176.152344 176.152344zm0 0" fill="#f2edf2"/><path d="m184.6875 76.800781-176.152344 176.152344zm0 0" fill="#f1ecf2"/><path d="m184.6875 76.800781-176.152344 176.152344zm0 0" fill="#f0ecf2"/><path d="m184.6875 76.800781-176.152344 176.152344zm0 0" fill="#efecf2"/><path d="m184.6875 76.800781-176.152344 176.152344zm0 0" fill="#eeebf2"/><path d="m184.6875 76.800781-176.152344 176.152344zm0 0" fill="#edebf2"/><path d="m184.6875 76.800781-176.152344 176.152344zm0 0" fill="#eceaf2"/><path d="m184.6875 76.800781-176.152344 176.152344zm0 0" fill="#ebeaf2"/><path d="m184.6875 76.800781-176.152344 176.152344zm0 0" fill="#eae9f2"/><path d="m184.6875 76.800781-176.152344 176.152344zm0 0" fill="#e8e9f2"/><path d="m184.6875 76.800781-176.152344 176.152344zm0 0" fill="#e7e8f2"/><path d="m184.6875 76.800781-176.152344 176.152344zm0 0" fill="#e6e8f2"/><path d="m184.6875 76.800781-176.152344 176.152344zm0 0" fill="#e5e7f2"/><path d="m184.6875 76.800781-176.152344 176.152344zm0 0" fill="#e4e7f2"/><path d="m184.6875 76.800781-176.152344 176.152344zm0 0" fill="#e3e6f2"/><path d="m184.6875 76.800781-176.152344 176.152344zm0 0" fill="#e2e6f2"/><path d="m184.6875 76.800781-176.152344 176.152344zm0 0" fill="#e1e6f2"/><path d="m184.6875 76.800781-176.152344 176.152344zm0 0" fill="#e0e5f2"/><path d="m184.6875 76.800781-176.152344 176.152344zm0 0" fill="#dfe5f2"/><path d="m184.6875 76.800781-176.152344 176.152344zm0 0" fill="#dee4f2"/><path d="m184.6875 76.800781-176.152344 176.152344zm0 0" fill="#dde4f2"/><path d="m184.6875 76.800781-176.152344 176.152344zm0 0" fill="#dce3f2"/><path d="m184.6875 76.800781-176.152344 176.152344zm0 0" fill="#dbe3f2"/><path d="m184.6875 76.800781-176.152344 176.152344zm0 0" fill="#dae2f2"/><path d="m184.6875 76.800781-176.152344 176.152344zm0 0" fill="#d9e2f2"/><path d="m184.6875 76.800781-176.152344 176.152344zm0 0" fill="#d8e1f2"/><path d="m184.6875 76.800781-176.152344 176.152344zm0 0" fill="#d7e1f2"/><path d="m184.6875 76.800781-176.152344 176.152344zm0 0" fill="#d6e0f2"/><path d="m184.6875 76.800781-176.152344 176.152344zm0 0" fill="#d5e0f2"/><path d="m184.6875 76.800781-176.152344 176.152344zm0 0" fill="#d4dff2"/><path d="m184.6875 76.800781-176.152344 176.152344zm0 0" fill="#d3dff2"/><path d="m281.601562 78.625-273.066406 273.066406v-98.738281l176.152344-176.152344h96.914062zm0 0" fill="#d3dff2"/><path d="m281.601562 78.703125-273.066406 273.066406v-.078125l273.066406-273.066406zm0 0" fill="#d3dff2"/><path d="m281.601562 78.769531-273.066406 273.066407v-.066407l273.066406-273.066406zm0 0" fill="#d8e1f2"/><path d="m281.601562 78.839844-273.066406 273.066406v-.070312l273.066406-273.066407zm0 0" fill="#dce3f2"/><path d="m281.601562 78.90625-273.066406 273.066406v-.066406l273.066406-273.066406zm0 0" fill="#e0e5f2"/><path d="m281.601562 78.976562-273.066406 273.066407v-.070313l273.066406-273.066406zm0 0" fill="#e4e7f2"/><path d="m281.601562 79.042969-273.066406 273.066406v-.066406l273.066406-273.066407zm0 0" fill="#e7e8f2"/><path d="m281.601562 79.113281-273.066406 273.066407v-.070313l273.066406-273.066406zm0 0" fill="#eaeaf2"/><path d="m281.601562 79.1875-273.066406 273.070312v-.078124l273.066406-273.066407zm0 0" fill="#edebf2"/><path d="m281.601562 79.257812-273.066406 273.066407v-.066407l273.066406-273.070312zm0 0" fill="#efecf2"/><path d="m281.601562 79.324219-273.066406 273.066406v-.066406l273.066406-273.066407zm0 0" fill="#f1edf2"/><path d="m281.601562 79.394531-273.066406 273.066407v-.070313l273.066406-273.066406zm0 0" fill="#f3eef2"/><path d="m281.601562 79.460938-273.066406 273.066406v-.066406l273.066406-273.066407zm0 0" fill="#f5eef2"/><path d="m281.601562 79.53125-273.066406 273.066406v-.070312l273.066406-273.066406zm0 0" fill="#f6eff2"/><path d="m281.601562 79.597656-273.066406 273.066406v-.066406l273.066406-273.066406zm0 0" fill="#f8f0f2"/><path d="m281.601562 79.667969-273.066406 273.066406v-.070313l273.066406-273.066406zm0 0" fill="#f9f0f2"/><path d="m281.601562 79.742188-273.066406 273.070312v-.078125l273.066406-273.066406zm0 0" fill="#faf1f2"/><path d="m281.601562 79.8125-273.066406 273.066406v-.066406l273.066406-273.070312zm0 0" fill="#fbf1f2"/><path d="m281.601562 79.878906-273.066406 273.066406v-.066406l273.066406-273.066406zm0 0" fill="#fbf1f2"/><path d="m281.601562 79.949219-273.066406 273.066406v-.070313l273.066406-273.066406zm0 0" fill="#fcf2f2"/><path d="m281.601562 80.015625-273.066406 273.066406v-.066406l273.066406-273.066406zm0 0" fill="#fdf2f2"/><path d="m281.601562 80.085938-273.066406 273.066406v-.070313l273.066406-273.066406zm0 0" fill="#fdf2f2"/><path d="m281.601562 80.152344-273.066406 273.066406v-.066406l273.066406-273.066406zm0 0" fill="#fdf2f2"/><path d="m281.601562 80.230469-273.066406 273.066406v-.078125l273.066406-273.066406zm0 0" fill="#fef2f2"/><path d="m281.601562 80.296875-273.066406 273.070313v-.070313l273.066406-273.066406zm0 0" fill="#fef3f2"/><path d="m281.601562 80.367188-273.066406 273.066406v-.066406l273.066406-273.070313zm0 0" fill="#fef3f2"/><path d="m281.601562 80.433594-273.066406 273.066406v-.066406l273.066406-273.066406zm0 0" fill="#fef3f2"/><path d="m281.601562 80.503906-273.066406 273.066406v-.070312l273.066406-273.066406zm0 0" fill="#fff3f2"/><path d="m281.601562 80.570312-273.066406 273.066407v-.066407l273.066406-273.066406zm0 0" fill="#fff3f2"/><path d="m281.601562 80.640625-273.066406 273.066406v-.070312l273.066406-273.066407zm0 0" fill="#fff3f2"/><path d="m281.601562 80.71875-273.066406 273.066406v-.078125l273.066406-273.066406zm0 0" fill="#fff3f2"/><path d="m281.601562 80.785156-273.066406 273.066406v-.066406l273.066406-273.066406zm0 0" fill="#fff3f2"/><path d="m281.601562 80.851562-273.066406 273.070313v-.070313l273.066406-273.066406zm0 0" fill="#fff3f2"/><path d="m281.601562 80.921875-273.066406 273.066406v-.066406l273.066406-273.070313zm0 0" fill="#fff3f2"/><path d="m281.601562 80.988281-273.066406 273.066407v-.066407l273.066406-273.066406zm0 0" fill="#fff3f2"/><path d="m281.601562 81.058594-273.066406 273.066406v-.070312l273.066406-273.066407zm0 0" fill="#fff3f2"/><path d="m281.601562 81.125-273.066406 273.066406v-.066406l273.066406-273.066406zm0 0" fill="#fff3f2"/><path d="m281.601562 81.203125-273.066406 273.066406v-.078125l273.066406-273.066406zm0 0" fill="#fff3f2"/><path d="m281.601562 81.269531-273.066406 273.070313v-.070313l273.066406-273.066406zm0 0" fill="#fff3f2"/><path d="m281.601562 81.339844-273.066406 273.066406v-.066406l273.066406-273.070313zm0 0" fill="#fff3f2"/><path d="m281.601562 81.40625-273.066406 273.070312v-.070312l273.066406-273.066406zm0 0" fill="#fff3f2"/><path d="m281.601562 81.476562-273.066406 273.066407v-.066407l273.066406-273.070312zm0 0" fill="#fff3f2"/><path d="m281.601562 81.542969-273.066406 273.066406v-.066406l273.066406-273.066407zm0 0" fill="#fff3f2"/><path d="m281.601562 81.613281-273.066406 273.066407v-.070313l273.066406-273.066406zm0 0" fill="#fff3f2"/><path d="m281.601562 81.679688-273.066406 273.066406v-.066406l273.066406-273.066407zm0 0" fill="#fff3f2"/><path d="m281.601562 128-273.066406 273.066406v-46.320312l273.066406-273.066406zm0 0" fill="#fff3f2"/><path d="m281.601562 128.015625-273.066406 273.066406v-.015625l273.066406-273.066406zm0 0" fill="#fff3f2"/><path d="m281.601562 128.027344-273.066406 273.066406v-.011719l273.066406-273.066406zm0 0" fill="#faf1f2"/><path d="m281.601562 128.042969-273.066406 273.066406v-.015625l273.066406-273.066406zm0 0" fill="#f6eff2"/><path d="m281.601562 128.058594-273.066406 273.066406v-.015625l273.066406-273.066406zm0 0" fill="#f2edf2"/><path d="m281.601562 128.066406-273.066406 273.070313v-.011719l273.066406-273.066406zm0 0" fill="#eeebf2"/><path d="m281.601562 128.085938-273.066406 273.066406v-.015625l273.066406-273.070313zm0 0" fill="#ebeaf2"/><path d="m281.601562 128.09375-273.066406 273.066406v-.007812l273.066406-273.066406zm0 0" fill="#e8e8f2"/><path d="m281.601562 128.109375-273.066406 273.066406v-.015625l273.066406-273.066406zm0 0" fill="#e5e7f2"/><path d="m281.601562 128.128906-273.066406 273.066406v-.019531l273.066406-273.066406zm0 0" fill="#e3e6f2"/><path d="m281.601562 128.136719-273.066406 273.066406v-.007813l273.066406-273.066406zm0 0" fill="#e1e5f2"/><path d="m281.601562 128.152344-273.066406 273.066406v-.015625l273.066406-273.066406zm0 0" fill="#dfe4f2"/><path d="m281.601562 128.171875-273.066406 273.066406v-.019531l273.066406-273.066406zm0 0" fill="#dde4f2"/><path d="m281.601562 128.179688-273.066406 273.066406v-.007813l273.066406-273.066406zm0 0" fill="#dce3f2"/><path d="m281.601562 128.195312-273.066406 273.066407v-.015625l273.066406-273.066406zm0 0" fill="#dae2f2"/><path d="m281.601562 128.214844-273.066406 273.066406v-.019531l273.066406-273.066407zm0 0" fill="#d9e2f2"/><path d="m281.601562 128.222656-273.066406 273.066406v-.007812l273.066406-273.066406zm0 0" fill="#d8e1f2"/><path d="m281.601562 128.238281-273.066406 273.066407v-.015626l273.066406-273.066406zm0 0" fill="#d7e1f2"/><path d="m281.601562 128.257812-273.066406 273.066407v-.019531l273.066406-273.066407zm0 0" fill="#d7e1f2"/><path d="m281.601562 128.265625-273.066406 273.066406v-.007812l273.066406-273.066407zm0 0" fill="#d6e0f2"/><path d="m281.601562 128.28125-273.066406 273.066406v-.015625l273.066406-273.066406zm0 0" fill="#d5e0f2"/><path d="m281.601562 128.296875-273.066406 273.070313v-.019532l273.066406-273.066406zm0 0" fill="#d5e0f2"/><path d="m281.601562 128.308594-273.066406 273.066406v-.007812l273.066406-273.070313zm0 0" fill="#d5e0f2"/><path d="m281.601562 128.324219-273.066406 273.066406v-.015625l273.066406-273.066406zm0 0" fill="#d4e0f2"/><path d="m281.601562 128.332031-273.066406 273.066407v-.007813l273.066406-273.066406zm0 0" fill="#d4dff2"/><path d="m281.601562 128.351562-273.066406 273.066407v-.019531l273.066406-273.066407zm0 0" fill="#d4dff2"/><path d="m281.601562 128.367188-273.066406 273.066406v-.015625l273.066406-273.066407zm0 0" fill="#d4dff2"/><g fill="#d3dff2"><path d="m281.601562 128.375-273.066406 273.066406v-.007812l273.066406-273.066406zm0 0"/><path d="m281.601562 128.390625-273.066406 273.070313v-.019532l273.066406-273.066406zm0 0"/><path d="m281.601562 128.410156-273.066406 273.066406v-.015624l273.066406-273.070313zm0 0"/><path d="m281.601562 128.417969-273.066406 273.066406v-.007813l273.066406-273.066406zm0 0"/><path d="m281.601562 128.433594-273.066406 273.066406v-.015625l273.066406-273.066406zm0 0"/><path d="m281.601562 128.453125-273.066406 273.066406v-.019531l273.066406-273.066406zm0 0"/><path d="m281.601562 128.460938-273.066406 273.066406v-.007813l273.066406-273.066406zm0 0"/><path d="m281.601562 128.476562-273.066406 273.066407v-.015625l273.066406-273.066406zm0 0"/><path d="m281.601562 128.496094-273.066406 273.066406v-.019531l273.066406-273.066407zm0 0"/><path d="m281.601562 128.503906-273.066406 273.066406v-.007812l273.066406-273.066406zm0 0"/><path d="m281.601562 128.519531-273.066406 273.066407v-.015626l273.066406-273.066406zm0 0"/><path d="m281.601562 128.527344-273.066406 273.070312v-.011718l273.066406-273.066407zm0 0"/><path d="m281.601562 128.546875-273.066406 273.066406v-.015625l273.066406-273.070312zm0 0"/><path d="m281.601562 128.5625-273.066406 273.066406v-.015625l273.066406-273.066406zm0 0"/><path d="m281.601562 128.570312-273.066406 273.066407v-.007813l273.066406-273.066406zm0 0"/><path d="m281.601562 128.589844-273.066406 273.066406v-.019531l273.066406-273.066407zm0 0"/><path d="m281.601562 128.605469-273.066406 273.066406v-.015625l273.066406-273.066406zm0 0"/><path d="m281.601562 128.613281-273.066406 273.066407v-.007813l273.066406-273.066406zm0 0"/><path d="m281.601562 276.113281-176.15625 176.152344h-96.910156v-50.585937l273.066406-273.066407zm0 0"/><path d="m281.601562 276.121094-176.148437 176.144531h-.007813l176.15625-176.152344zm0 0"/></g><path d="m281.601562 276.136719-176.128906 176.128906h-.019531l176.148437-176.144531zm0 0" fill="#d4dff2"/><path d="m281.601562 276.15625-176.113281 176.109375h-.015625l176.128906-176.128906zm0 0" fill="#d5e0f2"/><path d="m281.601562 276.164062-176.105468 176.101563h-.007813l176.113281-176.109375zm0 0" fill="#d6e0f2"/><path d="m281.601562 276.179688-176.085937 176.085937h-.019531l176.105468-176.101563zm0 0" fill="#d7e1f2"/><path d="m281.601562 276.191406-176.078124 176.074219h-.007813l176.085937-176.085937zm0 0" fill="#d8e1f2"/><path d="m281.601562 276.207031-176.0625 176.058594h-.015624l176.078124-176.074219zm0 0" fill="#d9e2f2"/><path d="m281.601562 276.222656-176.042968 176.042969h-.019532l176.0625-176.058594zm0 0" fill="#dae2f2"/><path d="m281.601562 276.234375-176.035156 176.03125h-.007812l176.042968-176.042969zm0 0" fill="#dbe3f2"/><path d="m281.601562 276.25-176.019531 176.015625h-.015625l176.035156-176.03125zm0 0" fill="#dce3f2"/><path d="m281.601562 276.265625-176 176h-.019531l176.019531-176.015625zm0 0" fill="#dde4f2"/><path d="m281.601562 276.273438-175.992187 175.992187h-.007813l176-176zm0 0" fill="#dee4f2"/><path d="m281.601562 276.292969-175.976562 175.972656h-.015625l175.992187-175.992187zm0 0" fill="#dfe5f2"/><path d="m281.601562 276.308594-175.957031 175.957031h-.019531l175.976562-175.972656zm0 0" fill="#e0e5f2"/><path d="m281.601562 276.316406-175.949218 175.949219h-.007813l175.957031-175.957031zm0 0" fill="#e1e6f2"/><path d="m281.601562 276.335938-175.933593 175.929687h-.015625l175.949218-175.949219zm0 0" fill="#e2e6f2"/><path d="m281.601562 276.351562-175.917968 175.914063h-.015625l175.933593-175.929687zm0 0" fill="#e3e6f2"/><path d="m281.601562 276.359375-175.90625 175.90625h-.011718l175.917968-175.914063zm0 0" fill="#e4e7f2"/><path d="m281.601562 276.378906-175.890624 175.886719h-.015626l175.90625-175.90625zm0 0" fill="#e5e7f2"/><path d="m281.601562 276.386719-175.882812 175.878906h-.007812l175.890624-175.886719zm0 0" fill="#e6e8f2"/><path d="m281.601562 276.402344-175.863281 175.863281h-.019531l175.882812-175.878906zm0 0" fill="#e7e8f2"/><path d="m281.601562 276.421875-175.847656 175.84375h-.015625l175.863281-175.863281zm0 0" fill="#e8e9f2"/><path d="m281.601562 276.429688-175.839843 175.835937h-.007813l175.847656-175.84375zm0 0" fill="#eae9f2"/><path d="m281.601562 276.445312-175.824218 175.820313h-.015625l175.839843-175.835937zm0 0" fill="#ebeaf2"/><path d="m281.601562 276.464844-175.804687 175.800781h-.019531l175.824218-175.820313zm0 0" fill="#eceaf2"/><path d="m281.601562 276.472656-175.796874 175.792969h-.007813l175.804687-175.800781zm0 0" fill="#edebf2"/><path d="m281.601562 276.488281-175.78125 175.777344h-.015624l175.796874-175.792969zm0 0" fill="#eeebf2"/><path d="m281.601562 276.503906-175.761718 175.761719h-.019532l175.78125-175.777344zm0 0" fill="#efecf2"/><path d="m281.601562 276.515625-175.753906 175.75h-.007812l175.761718-175.761719zm0 0" fill="#f0ecf2"/><path d="m281.601562 276.53125-175.738281 175.734375h-.015625l175.753906-175.75zm0 0" fill="#f1ecf2"/><path d="m281.601562 276.546875-175.71875 175.71875h-.019531l175.738281-175.734375zm0 0" fill="#f2edf2"/><path d="m281.601562 276.558594-175.710937 175.707031h-.007813l175.71875-175.71875zm0 0" fill="#f3edf2"/><path d="m281.601562 276.574219-175.695312 175.691406h-.015625l175.710937-175.707031zm0 0" fill="#f4eef2"/><path d="m281.601562 276.582031-175.6875 175.683594h-.007812l175.695312-175.691406zm0 0" fill="#f5eef2"/><path d="m281.601562 276.597656-175.667968 175.667969h-.019532l175.6875-175.683594zm0 0" fill="#f6eff2"/><path d="m281.601562 276.617188-175.652343 175.648437h-.015625l175.667968-175.667969zm0 0" fill="#f7eff2"/><path d="m281.601562 276.625-175.644531 175.640625h-.007812l175.652343-175.648437zm0 0" fill="#f8f0f2"/><path d="m281.601562 276.640625-175.625 175.625h-.019531l175.644531-175.640625zm0 0" fill="#f9f0f2"/><path d="m281.601562 276.660156-175.609374 175.605469h-.015626l175.625-175.625zm0 0" fill="#faf1f2"/><path d="m281.601562 276.667969-175.601562 175.597656h-.007812l175.609374-175.605469zm0 0" fill="#fbf1f2"/><path d="m281.601562 276.683594-175.582031 175.582031h-.019531l175.601562-175.597656zm0 0" fill="#fcf2f2"/><path d="m281.601562 276.703125-175.566406 175.5625h-.015625l175.582031-175.582031zm0 0" fill="#fdf2f2"/><path d="m281.601562 276.710938-175.558593 175.554687h-.007813l175.566406-175.5625zm0 0" fill="#fef3f2"/><path d="m281.601562 276.726562-175.539062 175.539063h-.019531l175.558593-175.554687zm0 0" fill="#fff3f2"/><path d="m281.601562 343.996094-108.273437 108.269531h-67.265625l175.539062-175.539063zm0 0" fill="#fff3f2"/><path d="m281.601562 344.003906-108.265624 108.261719h-.007813l108.273437-108.269531zm0 0" fill="#fff3f2"/><path d="m281.601562 344.019531-108.246093 108.246094h-.019531l108.265624-108.261719zm0 0" fill="#fef3f2"/><path d="m281.601562 344.039062-108.230468 108.226563h-.015625l108.246093-108.246094zm0 0" fill="#fdf2f2"/><path d="m281.601562 344.046875-108.222656 108.21875h-.007812l108.230468-108.226563zm0 0" fill="#fcf2f2"/><path d="m281.601562 344.0625-108.203124 108.203125h-.019532l108.222656-108.21875zm0 0" fill="#fbf1f2"/><path d="m281.601562 344.082031-108.1875 108.183594h-.015624l108.203124-108.203125zm0 0" fill="#faf1f2"/><path d="m281.601562 344.089844-108.179687 108.175781h-.007813l108.1875-108.183594zm0 0" fill="#f9f0f2"/><path d="m281.601562 344.105469-108.160156 108.160156h-.019531l108.179687-108.175781zm0 0" fill="#f8f0f2"/><path d="m281.601562 344.125-108.144531 108.140625h-.015625l108.160156-108.160156zm0 0" fill="#f7eff2"/><path d="m281.601562 344.132812-108.136718 108.132813h-.007813l108.144531-108.140625zm0 0" fill="#f6eff2"/><path d="m281.601562 344.148438-108.117187 108.117187h-.019531l108.136718-108.132813zm0 0" fill="#f5eef2"/><path d="m281.601562 344.15625-108.109374 108.109375h-.007813l108.117187-108.117187zm0 0" fill="#f4eef2"/><path d="m281.601562 344.175781-108.09375 108.089844h-.015624l108.109374-108.109375zm0 0" fill="#f3edf2"/><path d="m281.601562 344.191406-108.078124 108.074219h-.015626l108.09375-108.089844zm0 0" fill="#f2edf2"/><path d="m281.601562 344.199219-108.066406 108.066406h-.011718l108.078124-108.074219zm0 0" fill="#f1ecf2"/><path d="m281.601562 344.21875-108.050781 108.046875h-.015625l108.066406-108.066406zm0 0" fill="#f0ecf2"/><path d="m281.601562 344.234375-108.035156 108.03125h-.015625l108.050781-108.046875zm0 0" fill="#efecf2"/><path d="m281.601562 344.242188-108.023437 108.023437h-.011719l108.035156-108.03125zm0 0" fill="#eeebf2"/><path d="m281.601562 344.261719-108.007812 108.003906h-.015625l108.023437-108.023437zm0 0" fill="#edebf2"/><path d="m281.601562 344.277344-107.992187 107.988281h-.015625l108.007812-108.003906zm0 0" fill="#eceaf2"/><path d="m281.601562 344.285156-107.980468 107.980469h-.011719l107.992187-107.988281zm0 0" fill="#ebeaf2"/><path d="m281.601562 344.304688-107.964843 107.960937h-.015625l107.980468-107.980469zm0 0" fill="#eae9f2"/><path d="m281.601562 344.320312-107.949218 107.945313h-.015625l107.964843-107.960937zm0 0" fill="#e8e9f2"/><path d="m281.601562 344.328125-107.941406 107.9375h-.007812l107.949218-107.945313zm0 0" fill="#e7e8f2"/><path d="m281.601562 344.34375-107.921874 107.921875h-.019532l107.941406-107.9375zm0 0" fill="#e6e8f2"/><path d="m281.601562 344.355469-107.914062 107.910156h-.007812l107.921874-107.921875zm0 0" fill="#e5e7f2"/><path d="m281.601562 344.371094-107.898437 107.894531h-.015625l107.914062-107.910156zm0 0" fill="#e4e7f2"/><path d="m281.601562 344.386719-107.878906 107.878906h-.019531l107.898437-107.894531zm0 0" fill="#e3e6f2"/><path d="m281.601562 344.398438-107.871093 107.867187h-.007813l107.878906-107.878906zm0 0" fill="#e2e6f2"/><path d="m281.601562 344.414062-107.855468 107.851563h-.015625l107.871093-107.867187zm0 0" fill="#e1e6f2"/><path d="m281.601562 344.429688-107.835937 107.835937h-.019531l107.855468-107.851563zm0 0" fill="#e0e5f2"/><path d="m281.601562 344.441406-107.828124 107.824219h-.007813l107.835937-107.835937zm0 0" fill="#dfe5f2"/><path d="m281.601562 344.457031-107.8125 107.808594h-.015624l107.828124-107.824219zm0 0" fill="#dee4f2"/><path d="m281.601562 344.472656-107.792968 107.792969h-.019532l107.8125-107.808594zm0 0" fill="#dde4f2"/><path d="m281.601562 344.480469-107.785156 107.785156h-.007812l107.792968-107.792969zm0 0" fill="#dce3f2"/><path d="m281.601562 344.5-107.769531 107.765625h-.015625l107.785156-107.785156zm0 0" fill="#dbe3f2"/><path d="m281.601562 344.515625-107.753906 107.75h-.015625l107.769531-107.765625zm0 0" fill="#dae2f2"/><path d="m281.601562 344.523438-107.742187 107.742187h-.011719l107.753906-107.75zm0 0" fill="#d9e2f2"/><path d="m281.601562 344.542969-107.726562 107.722656h-.015625l107.742187-107.742187zm0 0" fill="#d8e1f2"/><path d="m281.601562 344.550781-107.71875 107.714844h-.007812l107.726562-107.722656zm0 0" fill="#d7e1f2"/><path d="m281.601562 344.566406-107.699218 107.699219h-.019532l107.71875-107.714844zm0 0" fill="#d6e0f2"/><path d="m281.601562 344.585938-107.683593 107.679687h-.015625l107.699218-107.699219zm0 0" fill="#d5e0f2"/><path d="m281.601562 344.59375-107.675781 107.671875h-.007812l107.683593-107.679687zm0 0" fill="#d4dff2"/><path d="m281.601562 344.609375-107.65625 107.65625h-.019531l107.675781-107.671875zm0 0" fill="#d3dff2"/><path d="m173.945312 452.265625 107.65625-107.65625v107.65625zm0 0" fill="#d3dff2"/><path d="m247.464844 256c0 56.554688-45.84375 102.398438-102.398438 102.398438-2.507812.015624-5.011718-.097657-7.507812-.339844-1.515625-.027344-3.023438-.144532-4.523438-.339844-.257812 0-.597656-.085938-.855468-.085938-.851563-.171874-1.703126-.257812-2.644532-.425781-3.386718-.511719-6.75-1.195312-10.070312-2.050781-1.703125-.425781-3.328125-.851562-4.863282-1.363281-1.535156-.511719-3.15625-1.023438-4.691406-1.621094-1.28125-.429687-2.476562-.855469-3.753906-1.367187-1.878906-.765626-3.757812-1.621094-5.546875-2.472657-2.050781-1.023437-4.011719-2.050781-5.976563-3.160156-38.414062-21.734375-58.578124-65.640625-50.035156-108.945313 8.546875-43.300781 43.875-76.257812 87.667969-81.773437 4.242187-.585937 8.519531-.871094 12.800781-.851563 24.109375-.074218 47.457032 8.425782 65.878906 23.976563 1.363282 1.195313 2.730469 2.390625 4.09375 3.667969 4 3.699218 7.679688 7.722656 11.007813 12.035156 1.023437 1.277344 1.964844 2.644531 2.902344 3.925781l1.023437 1.535157c1.878906 2.730468 3.5 5.460937 5.121094 8.363281.851562 1.621093 1.707031 3.242187 2.472656 4.949219.769532 1.707031 1.539063 3.328124 2.21875 5.035156.683594 1.703125 1.367188 3.496094 1.964844 5.203125s1.195312 3.585937 1.707031 5.375c.597657 1.964843 1.109375 4.011719 1.535157 6.058593.335937 1.265626.59375 2.546876.769531 3.839844.425781 2.21875.765625 4.523438 1.023437 6.828125.195313 1.355469.3125 2.726563.339844 4.097657.242188 2.492187.359375 5 .339844 7.507812zm0 0" fill="#cad9fc"/><path d="m221.867188 256c.046874 51.660156-38.421876 95.25-89.6875 101.632812-.851563-.171874-1.703126-.257812-2.644532-.425781-3.386718-.511719-6.75-1.195312-10.070312-2.050781-1.703125-.425781-3.328125-.851562-4.863282-1.363281-1.535156-.511719-3.15625-1.023438-4.691406-1.621094-1.28125-.429687-2.476562-.855469-3.753906-1.367187-1.878906-.765626-3.757812-1.621094-5.546875-2.472657-2.050781-1.023437-4.011719-2.050781-5.976563-3.160156-38.414062-21.734375-58.578124-65.640625-50.035156-108.945313 8.546875-43.300781 43.875-76.257812 87.667969-81.773437 19.582031 2.324219 38.042969 10.367187 53.078125 23.125 1.367188 1.195313 2.730469 2.390625 4.097656 3.667969 3.996094 3.699218 7.679688 7.722656 11.007813 12.035156 1.023437 1.277344 1.960937 2.644531 2.898437 3.925781l1.027344 1.535157c1.875 2.730468 3.496094 5.460937 5.117188 8.363281.855468 1.621093 1.707031 3.242187 2.476562 4.949219.765625 1.707031 1.535156 3.328124 2.21875 5.035156.683594 1.703125 1.363281 3.496094 1.960938 5.203125.597656 1.707031 1.195312 3.585937 1.707031 5.375.597656 1.964843 1.109375 4.011719 1.535156 6.058593.339844 1.265626.59375 2.546876.769531 3.839844.425782 2.21875.769532 4.523438 1.023438 6.828125.199218 1.355469.3125 2.726563.339844 4.097657.246093 2.492187.359374 5 .34375 7.507812zm0 0" fill="#e8edfc"/><path d="m145.066406 187.734375c9.425782 0 17.066406 7.640625 17.066406 17.066406v42.664063c0 9.425781-7.640624 17.070312-17.066406 17.070312-9.425781 0-17.066406-7.644531-17.066406-17.070312v-42.664063c0-9.425781 7.640625-17.066406 17.066406-17.066406zm0 0" fill="#fff"/><path d="m34.132812 503.464844h25.601563c-14.140625 0-25.601563-11.460938-25.601563-25.597656v-443.734376c0-14.136718 11.460938-25.597656 25.601563-25.597656h-25.601563c-14.136718 0-25.597656 11.460938-25.597656 25.597656v443.734376c0 14.136718 11.460938 25.597656 25.597656 25.597656zm0 0" fill="#fff"/><path d="m8.535156 486.398438c-4.714844 0-8.535156-3.820313-8.535156-8.53125v-443.734376c0-4.710937 3.820312-8.53125 8.535156-8.53125 4.710938 0 8.53125 3.820313 8.53125 8.53125v443.734376c0 4.710937-3.820312 8.53125-8.53125 8.53125zm0 0" fill="#428dff"/><path d="m17.066406 102.398438v324.269531h-17.066406v-324.269531zm0 0" fill="#fff"/><path d="m8.535156 145.066406c4.710938 0 8.53125-3.820312 8.53125-8.53125v-34.136718h-17.066406v34.136718c0 4.710938 3.820312 8.53125 8.535156 8.53125zm0 0" fill="#428dff"/><path d="m0 426.667969h17.066406v-221.867188c0-4.714843-3.820312-8.535156-8.53125-8.535156-4.714844 0-8.535156 3.820313-8.535156 8.535156zm0 0" fill="#428dff"/><path d="m17.066406 170.667969c-.03125-2.261719-.917968-4.421875-2.472656-6.058594l-1.28125-1.023437c-.476562-.324219-.992188-.582032-1.535156-.769532-.484375-.246094-1.003906-.417968-1.539063-.511718-.5625-.09375-1.132812-.152344-1.703125-.171876-2.261718.035157-4.425781.917969-6.058594 2.476563-.773437.816406-1.382812 1.769531-1.792968 2.816406-1.289063 3.179688-.5859378 6.824219 1.792968 9.300781.8125.769532 1.769532 1.378907 2.8125 1.789063 1.027344.4375 2.128907.671875 3.246094.683594 2.269532.023437 4.453125-.867188 6.058594-2.472657 1.605469-1.605468 2.496094-3.789062 2.472656-6.058593zm0 0" fill="#428dff"/><path d="m256 512h-221.867188c-18.851562 0-34.132812-15.28125-34.132812-34.132812 0-4.714844 3.820312-8.535157 8.535156-8.535157 4.710938 0 8.53125 3.820313 8.53125 8.535157 0 9.425781 7.640625 17.066406 17.066406 17.066406h221.867188c9.425781 0 17.066406-7.640625 17.066406-17.066406v-443.734376c0-9.425781-7.640625-17.066406-17.066406-17.066406h-221.867188c-9.425781 0-17.066406 7.640625-17.066406 17.066406 0 4.714844-3.820312 8.535157-8.53125 8.535157-4.714844 0-8.535156-3.820313-8.535156-8.535157 0-18.851562 15.28125-34.132812 34.132812-34.132812h221.867188c18.851562 0 34.132812 15.28125 34.132812 34.132812v443.734376c0 18.851562-15.28125 34.132812-34.132812 34.132812zm0 0" fill="#428dff"/><path d="m256 460.800781h-221.867188c-18.851562 0-34.132812-15.28125-34.132812-34.132812 0-4.714844 3.820312-8.535157 8.535156-8.535157 4.710938 0 8.53125 3.820313 8.53125 8.535157 0 9.425781 7.640625 17.066406 17.066406 17.066406h221.867188c9.425781 0 17.066406-7.640625 17.066406-17.066406v-324.269531c0-9.425782-7.640625-17.066407-17.066406-17.066407h-221.867188c-9.425781 0-17.066406 7.640625-17.066406 17.066407 0 4.714843-3.820312 8.535156-8.53125 8.535156-4.714844 0-8.535156-3.820313-8.535156-8.535156 0-18.851563 15.28125-34.132813 34.132812-34.132813h221.867188c18.851562 0 34.132812 15.28125 34.132812 34.132813v324.269531c0 18.851562-15.28125 34.132812-34.132812 34.132812zm0 0" fill="#428dff"/><path d="m93.867188 51.199219c-2.269532.023437-4.453126-.867188-6.058594-2.472657-1.605469-1.605468-2.5-3.789062-2.476563-6.058593.019531-2.261719.902344-4.433594 2.476563-6.058594 2.441406-2.464844 6.128906-3.203125 9.332031-1.875 3.199219 1.332031 5.28125 4.464844 5.257813 7.933594-.03125 2.257812-.914063 4.421875-2.472657 6.058593-1.628906 1.570313-3.796875 2.457032-6.058593 2.472657zm0 0" fill="#428dff"/><path d="m196.265625 51.199219h-68.265625c-4.710938 0-8.535156-3.820313-8.535156-8.53125 0-4.714844 3.824218-8.535157 8.535156-8.535157h68.265625c4.714844 0 8.535156 3.820313 8.535156 8.535157 0 4.710937-3.820312 8.53125-8.535156 8.53125zm0 0" fill="#428dff"/><path d="m145.066406 366.933594c-61.265625 0-110.933594-49.667969-110.933594-110.933594s49.667969-110.933594 110.933594-110.933594 110.933594 49.667969 110.933594 110.933594c-.070312 61.238281-49.695312 110.863281-110.933594 110.933594zm0-204.800782c-51.839844 0-93.867187 42.027344-93.867187 93.867188s42.027343 93.867188 93.867187 93.867188 93.867188-42.027344 93.867188-93.867188c-.0625-51.816406-42.050782-93.804688-93.867188-93.867188zm0 0" fill="#428dff"/><path d="m145.066406 273.066406c-14.136718 0-25.601562-11.460937-25.601562-25.601562v-42.664063c0-14.140625 11.464844-25.601562 25.601562-25.601562 14.140625 0 25.601563 11.460937 25.601563 25.601562v42.664063c0 14.140625-11.460938 25.601562-25.601563 25.601562zm0-76.800781c-4.710937 0-8.53125 3.820313-8.53125 8.535156v42.664063c0 4.714844 3.820313 8.535156 8.53125 8.535156 4.714844 0 8.535156-3.820312 8.535156-8.535156v-42.664063c0-4.714843-3.820312-8.535156-8.535156-8.535156zm0 0" fill="#428dff"/><path d="m145.066406 298.667969c-28.265625-.03125-51.171875-22.9375-51.199218-51.203125v-8.53125c0-4.714844 3.820312-8.535156 8.53125-8.535156 4.714843 0 8.535156 3.820312 8.535156 8.535156v8.53125c0 18.851562 15.28125 34.136718 34.132812 34.136718 18.851563 0 34.132813-15.285156 34.132813-34.136718v-8.53125c0-4.714844 3.820312-8.535156 8.535156-8.535156 4.710937 0 8.53125 3.820312 8.53125 8.535156v8.53125c-.027344 28.265625-22.933594 51.171875-51.199219 51.203125zm0 0" fill="#428dff"/><path d="m162.132812 332.800781h-34.132812c-4.710938 0-8.535156-3.820312-8.535156-8.535156 0-4.710937 3.824218-8.53125 8.535156-8.53125h8.535156v-25.601563c0-4.710937 3.820313-8.53125 8.53125-8.53125 4.714844 0 8.535156 3.820313 8.535156 8.53125v25.601563h8.53125c4.714844 0 8.535157 3.820313 8.535157 8.53125 0 4.714844-3.820313 8.535156-8.535157 8.535156zm0 0" fill="#428dff"/><path d="m179.199219 418.132812h-68.265625c-4.714844 0-8.535156-3.820312-8.535156-8.53125 0-4.714843 3.820312-8.535156 8.535156-8.535156h68.265625c4.714843 0 8.535156 3.820313 8.535156 8.535156 0 4.710938-3.820313 8.53125-8.535156 8.53125zm0 0" fill="#428dff"/></svg>